# xmcd CD database file
#
# Track frame offsets:
#	150
#	17542
#	33236
#	47882
#	64790
#	79915
#	93420
#	108075
#	120989
#	134971
#	150716
#	162597
#	177430
#	194383
#	212423
#	233291
#	248941
#	265222
#
# Disc length: 3805 seconds
#
# Revision: 0
# Processed by: cddbd v1.5.2PL0 Copyright (c) Steve Scherf et al.
# Submitted via: CDex 1.70beta2
#
DISCID=ef0edb12
DTITLE=Various Artist - There's More To Country - Disc Two
DYEAR=2007
DGENRE=Country
TTITLE0=Felicity Urquhart - Big Black Cloud (Radio Edit)
TTITLE1=Bob Evans - Friend
TTITLE2=Danielle Peck - Findin' A Good Man
TTITLE3=Catherine Britt - Swingin' Door
TTITLE4=The Wilkinsons - L.A.
TTITLE5=Sherrie Austin - Son of a Preacher Man
TTITLE6=Shea Fisher - Just the Excuse
TTITLE7=Hot Apple Pie - We're Makin' Up
TTITLE8=Megan Mullins - Ain't What It Used To Be
TTITLE9=Brooks and Dunn - My Maria
TTITLE10=Beccy Cole - A Better Woman
TTITLE11=Chely Wright - Single White Female
TTITLE12=Vince Gill - You Better Think Twice
TTITLE13=Aleyce Simmonds - Might Mighty Love
TTITLE14=Katrina Elam - No End In Sight
TTITLE15=Jonah's Road - Someone Like You
TTITLE16=Jake Nickolai - Three Days Drivin'
TTITLE17=Troy Cassar-Daley and Jimmy Barnes - Bird On A Wire
EXTD=YEAR: 2007
EXTT0=
EXTT1=
EXTT2=
EXTT3=
EXTT4=
EXTT5=
EXTT6=
EXTT7=
EXTT8=
EXTT9=
EXTT10=
EXTT11=
EXTT12=
EXTT13=
EXTT14=
EXTT15=
EXTT16=
EXTT17=
PLAYORDER=
